<mxfile host="drawio-plugin" modified="2021-06-01T15:10:54.191Z" agent="5.0 (X11; Linux x86_64) AppleWebKit/537.36 (KHTML, like Gecko) Chrome/81.0.4044.113 Safari/537.36" etag="_mCHh7bMDHw6Uw2N_G19" version="13.7.9" type="embed"><diagram id="WCvRmE-J3laKeI3AxBFs" name="Page-1"><mxGraphModel dx="973" dy="706" grid="1" gridSize="10" guides="1" tooltips="1" connect="1" arrows="1" fold="1" page="1" pageScale="1" pageWidth="1600" pageHeight="1200" math="0" shadow="0"><root><mxCell id="0"/><mxCell id="1" parent="0"/><mxCell id="2" value="" style="edgeStyle=orthogonalEdgeStyle;rounded=0;orthogonalLoop=1;jettySize=auto;html=1;" parent="1" source="3" target="5" edge="1"><mxGeometry relative="1" as="geometry"/></mxCell><mxCell id="3" value="Create Customer Order Service" style="rounded=0;whiteSpace=wrap;html=1;" parent="1" vertex="1"><mxGeometry x="60" y="40" width="120" height="60" as="geometry"/></mxCell><mxCell id="4" value="" style="edgeStyle=orthogonalEdgeStyle;rounded=0;orthogonalLoop=1;jettySize=auto;html=1;" parent="1" source="5" target="6" edge="1"><mxGeometry relative="1" as="geometry"/></mxCell><mxCell id="5" value="Kafka" style="shape=process;whiteSpace=wrap;html=1;backgroundOutline=1;" parent="1" vertex="1"><mxGeometry x="229" y="40" width="140" height="60" as="geometry"/></mxCell><mxCell id="6" value="Router" style="rounded=0;whiteSpace=wrap;html=1;" parent="1" vertex="1"><mxGeometry x="420" y="40" width="120" height="60" as="geometry"/></mxCell><mxCell id="7" value="Update Customer Order Service" style="rounded=0;whiteSpace=wrap;html=1;" parent="1" vertex="1"><mxGeometry x="60" y="120" width="120" height="60" as="geometry"/></mxCell><mxCell id="8" value="Cancel Customer Order Service" style="rounded=0;whiteSpace=wrap;html=1;" parent="1" vertex="1"><mxGeometry x="60" y="200" width="120" height="60" as="geometry"/></mxCell></root></mxGraphModel></diagram></mxfile>